<svg width="123" height="26" viewBox="0 0 123 26" fill="none" xmlns="http://www.w3.org/2000/svg">
<path d="M20.89 22.13V25H0.765V0.534998H3.635V22.13H20.89ZM38.8423 2.95C35.3773 2.95 31.8423 3.055 28.3773 3.195C28.0623 3.23 27.7123 3.37 27.4673 3.615C27.2223 3.86 27.0823 4.175 27.0823 4.525C26.8023 9.985 26.8023 15.55 27.0823 21.045C27.0823 21.36 27.2223 21.71 27.4673 21.955C27.7123 22.2 28.0623 22.34 28.3773 22.34C31.8423 22.515 35.3773 22.585 38.8423 22.585C42.3073 22.585 45.8073 22.515 49.2723 22.34C49.6223 22.34 49.9373 22.2 50.1823 21.955C50.4273 21.71 50.5673 21.36 50.6023 21.045C50.8823 15.55 50.8823 9.985 50.6023 4.525C50.5673 4.175 50.4273 3.86 50.1823 3.615C49.9373 3.37 49.6223 3.23 49.2723 3.195C45.8073 3.055 42.3073 2.95 38.8423 2.95ZM28.2723 0.324998C31.7723 0.149999 35.3073 0.0799996 38.8423 0.0799996C42.3423 0.0799996 45.8773 0.149999 49.4123 0.324998C51.6173 0.429999 53.3673 2.18 53.4723 4.385C53.7523 9.985 53.7523 15.585 53.4723 21.185C53.3673 23.355 51.6173 25.14 49.4123 25.21C45.8773 25.385 42.3423 25.455 38.8423 25.455C35.3073 25.455 31.7723 25.385 28.2723 25.21C26.0673 25.14 24.3173 23.355 24.2123 21.185C23.8973 15.585 23.8973 9.985 24.2123 4.385C24.3173 2.18 26.0673 0.429999 28.2723 0.324998ZM68.5264 14.29V11.385H84.3464C86.5164 11.49 88.3014 13.24 88.4064 15.445V18.91C88.3714 19.645 88.3364 20.415 88.3014 21.185C88.1964 23.355 86.4464 25.14 84.2414 25.21C80.7064 25.385 77.1714 25.455 73.6714 25.455C70.1364 25.455 66.6014 25.385 63.1014 25.21C60.8964 25.14 59.1464 23.355 59.0414 21.185C58.7264 15.585 58.7264 9.985 59.0414 4.385C59.1464 2.18 60.8964 0.429999 63.1014 0.324998C66.6014 0.149999 70.1364 0.0799996 73.6714 0.0799996C77.1714 0.0799996 80.7064 0.149999 84.2414 0.324998C86.4464 0.429999 88.1964 2.18 88.3014 4.385C88.3364 5.12 88.3714 5.89 88.4064 6.66H85.5014C85.5014 5.925 85.4664 5.225 85.4314 4.525C85.3964 4.175 85.2564 3.86 85.0114 3.615C84.7664 3.37 84.4514 3.23 84.1014 3.195C80.6364 3.055 77.1364 2.95 73.6714 2.95C70.2064 2.95 66.6714 3.055 63.2064 3.195C62.8914 3.23 62.5414 3.37 62.2964 3.615C62.0514 3.86 61.9114 4.175 61.9114 4.525C61.6314 9.985 61.6314 15.55 61.9114 21.045C61.9114 21.36 62.0514 21.71 62.2964 21.955C62.5414 22.2 62.8914 22.34 63.2064 22.34C66.6714 22.515 70.2064 22.585 73.6714 22.585C77.1364 22.585 80.6364 22.515 84.1014 22.34C84.4514 22.34 84.7664 22.2 85.0114 21.955C85.2564 21.71 85.3964 21.36 85.4314 21.045C85.4664 20.31 85.5014 19.61 85.5014 18.91L85.5364 15.585C85.5014 15.235 85.3614 14.92 85.1164 14.675C84.8714 14.43 84.5564 14.29 84.2064 14.255L68.5264 14.29ZM108.09 2.95C104.625 2.95 101.09 3.055 97.6253 3.195C97.3103 3.23 96.9603 3.37 96.7153 3.615C96.4703 3.86 96.3303 4.175 96.3303 4.525C96.0503 9.985 96.0503 15.55 96.3303 21.045C96.3303 21.36 96.4703 21.71 96.7153 21.955C96.9603 22.2 97.3103 22.34 97.6253 22.34C101.09 22.515 104.625 22.585 108.09 22.585C111.555 22.585 115.055 22.515 118.52 22.34C118.87 22.34 119.185 22.2 119.43 21.955C119.675 21.71 119.815 21.36 119.85 21.045C120.13 15.55 120.13 9.985 119.85 4.525C119.815 4.175 119.675 3.86 119.43 3.615C119.185 3.37 118.87 3.23 118.52 3.195C115.055 3.055 111.555 2.95 108.09 2.95ZM97.5203 0.324998C101.02 0.149999 104.555 0.0799996 108.09 0.0799996C111.59 0.0799996 115.125 0.149999 118.66 0.324998C120.865 0.429999 122.615 2.18 122.72 4.385C123 9.985 123 15.585 122.72 21.185C122.615 23.355 120.865 25.14 118.66 25.21C115.125 25.385 111.59 25.455 108.09 25.455C104.555 25.455 101.02 25.385 97.5203 25.21C95.3153 25.14 93.5653 23.355 93.4603 21.185C93.1453 15.585 93.1453 9.985 93.4603 4.385C93.5653 2.18 95.3153 0.429999 97.5203 0.324998Z" fill="black"/>
</svg>
